<?xml version="1.0"?>
<svg width="255" height="171" viewBox="0 0 255 171" xmlns="http://www.w3.org/2000/svg">
 <g>
  <title>background</title>
  <rect x="-1" y="-1" width="257" height="173" id="canvas_background" fill="#0192eb"/>
 </g>

 <g>
  <title>Layer 1</title>
  <g stroke="null" id="svg_1">
   <g stroke="null" id="svg_2">
    <path stroke="null" d="m103.75,132.679993l-65.650002,0l0,-45.449997l13.10474,0c0,0 3.481476,-4.528831 10.958496,-10.099998l-29.113239,0c-2.789619,0 -5.049999,2.260384 -5.049999,5.050003l0,55.549995c0,2.789612 2.26038,5.050003 5.049999,5.050003l75.749992,0c2.789619,0 5.049995,-2.260391 5.049995,-5.050003l0,-18.919327l-10.099991,8.308273l0,5.56105l0.000008,0zm-8.271904,-35.097496l0,17.927498l33.521904,-26.263023l-33.521904,-25.246971l0,15.80851c-40.713097,0 -40.713097,40.246483 -40.713097,40.246483c11.522079,-18.928406 18.614304,-22.472496 40.713097,-22.472496z" fill="#ffffff" id="svg_3"/>
   </g>
  </g>
  <g id="svg_4"/>
  <g id="svg_5"/>
  <g id="svg_6"/>
  <g id="svg_7"/>
  <g id="svg_8"/>
  <g id="svg_9"/>
  <g id="svg_10"/>
  <g id="svg_11"/>
  <g id="svg_12"/>
  <g id="svg_13"/>
  <g id="svg_14"/>
  <g id="svg_15"/>
  <g id="svg_16"/>
  <g id="svg_17"/>
  <g id="svg_18"/>
  <path stroke="null" fill="#ffffff" stroke-width="1.5" d="m135.5,32.833l0,72.00605l88,0l0,-72.00605l-88,0zm74.148148,65.825493l-60.296295,0l0,-59.644981l60.296295,0l0,59.644981zm-45.629623,-36.270588c4.647705,0 8.41864,-3.730228 8.41864,-8.32774c0,-4.600723 -3.770935,-8.327724 -8.41864,-8.327724c-4.65097,0 -8.418686,3.730232 -8.418686,8.327724c0,4.597511 3.767715,8.32774 8.418686,8.32774zm42.373566,7.254124l-16.025742,-15.85268l-22.544296,22.300793l-6.247971,-6.180519l-8.969482,8.872597l0,16.652237l53.787491,0l0,-25.792427z" id="svg_19"/>
 </g>
</svg>