<?xml version="1.0"?>
<svg width="255" height="171" viewBox="0 0 255 171" xmlns="http://www.w3.org/2000/svg">
 <g>
  <title>background</title>
  <rect x="-1" y="-1" width="257" height="173" id="canvas_background" fill="#0192eb"/>
 </g>

 <g>
  <title>Layer 1</title>
  <g id="svg_3"/>
  <g id="svg_4"/>
  <g id="svg_5"/>
  <g id="svg_6"/>
  <g id="svg_7"/>
  <g id="svg_8"/>
  <g id="svg_9"/>
  <g id="svg_10"/>
  <g id="svg_11"/>
  <g id="svg_12"/>
  <g id="svg_13"/>
  <g id="svg_14"/>
  <g id="svg_15"/>
  <g id="svg_16"/>
  <g id="svg_17"/>
  <rect fill="none" stroke="#ffffff" stroke-width="4" x="32.5" y="21" width="90" height="93" id="svg_21" stroke-dasharray="5,5" rx="9"/>
  <rect fill="none" stroke="#ffffff" stroke-width="6" x="139.5" y="20" width="90" height="93" id="svg_22" rx="9"/>
  <g id="svg_1">
   <path d="m173.380997,81.998993l-9.555008,6.53801c-0.634995,-1.166 -1.678986,-2.104996 -3.013,-2.552994c-0.53299,-0.179016 -1.070984,-0.266006 -1.600983,-0.271011c0.457001,-0.535995 0.817993,-1.172989 1.042999,-1.896988c0.881989,-2.839005 -0.660004,-5.897003 -3.442017,-6.832001c-2.322983,-0.781006 -4.771988,0.169998 -6.031998,2.155991c0.022995,-2.315994 -1.446991,-4.483994 -3.761002,-5.235001c-2.405991,-0.781006 -4.945984,0.225006 -6.209991,2.281998l-0.600006,1.376007c0,0.000992 0,0.001999 -0.000992,0.002991c2.353989,-1.187988 4.264008,-1.86499 5.478989,-1.884995c2.459015,-0.039993 4.381012,2.434998 2.917999,4.949997c-1.466995,2.521011 -6.478989,5.093002 -9.515991,8.546005c-0.86499,0.985992 -1.925995,2.585999 -2.796997,3.501999c-0.938995,0.988998 -1.837997,1.865005 -2.677002,2.669998c0.001007,0 0.007004,-0.003998 0.007004,-0.003998s-0.020004,0.016998 -0.024002,0.020996c-0.87001,0.835007 -1.677002,1.593994 -2.393997,2.313995c-0.172012,0.173004 -0.332001,0.348007 -0.486008,0.522003c-0.098999,0.112 -0.192993,0.225006 -0.285995,0.335999c-0.046997,0.056015 -0.095001,0.112 -0.139008,0.167007l-1.479996,2.218994c0.035004,0.109009 2.679001,-0.977005 5.703003,-4.722992c2.106003,-2.608002 4.078003,-5.389999 6.289993,-7.880997c1.645004,-1.851013 4.434006,-3.003006 6.464005,-5.021011c3.136002,-3.11499 5.972,-4.554001 7.649002,-4.477997c0.600998,0.026993 4.175003,0.992996 3.610992,3.632004c-0.522995,2.455002 -3.843002,5.024994 -6.530991,8.462006c-1.132996,1.445984 -1.71701,3.054993 -2.834,4.570999c-2.207001,2.994995 -6.352005,5.705994 -7.817001,8.278c-1.895996,3.326996 -1.818008,4.432983 -1.921005,4.644989c0.027008,-0.039001 0.153,-0.177002 0.382996,-0.417999c0.415009,-0.447998 1.175003,-1.235992 2.325012,-2.334c-0.004013,0.003998 -0.008011,0.009003 -0.012009,0.014008c0.047012,-0.046005 0.089005,-0.087006 0.137009,-0.134003c-0.042999,0.041992 -0.083008,0.080002 -0.125,0.119995c0.095993,-0.110992 0.188004,-0.205994 0.274994,-0.264999c0.565994,-0.544998 1.182999,-1.126999 1.831009,-1.720001c1.136993,-1.039001 2.341995,-1.914993 3.352997,-3.274994c3.837006,-5.167007 8.117996,-10.647003 10.662994,-11.996002c2.171005,-1.152008 4.875,1.319992 3.938004,4.598999c-0.44101,1.542999 -2.455002,3.940994 -4.688004,7.061996c-1.212997,1.695999 -1.834,3.792007 -3.123001,5.67601c-1.746994,2.554993 -3.861008,5.221985 -5.809006,7.146988c-2.784988,2.751999 -4.061981,4.712997 -4.638992,5.393005c-0.938004,1.104004 -0.828995,1.916992 -0.929993,1.968994c0,0 0.339996,-0.243988 0.877991,-0.576004l0.011002,-0.007996l0,0c1.270996,-0.783005 3.652008,-2.056 5.438004,-1.844986c2.423996,0.287994 3.636002,3.582993 3.350998,4.559982c-0.481003,1.660004 -2.28299,3.373016 -3.940002,5.844009c-0.786987,1.171997 -1.553009,2.770996 -2.423004,4.07399c-1.341003,2.01001 -3.819,3.988007 -5.194,6.008011c-1.145996,1.682999 -2.382996,4.728989 -3.235992,6.304001c-0.916,1.692001 -2.410004,3.694 -3.416,4.300003c-3.729004,2.242996 -2.895996,3.526993 -2.401993,5.738998c1.929993,8.634003 -42.682007,6.279999 -39.214005,-2.572998c1.709,-4.361008 0.110992,-5.700012 -0.514008,-8.061005c-0.625999,-2.358002 -3.935989,-3.753998 -4.314995,-6.229004c-0.372002,-2.424988 -5.355003,-17.799988 -4.188004,-20.395996c2.564003,-5.703003 3.815002,-11.134003 5.295006,-13.059998c1.417999,-1.846008 5.065994,-2.438004 5.065994,-2.438004c-0.032997,0.046005 2.273003,-2.807999 4.066002,-3.757996c0.998001,-0.529022 4.133003,0.585999 3.098,6.247986c-0.541,2.96299 -2.842003,4.656998 -2.857002,4.359978c-0.002998,-0.043991 -0.081993,1.341003 -0.350998,2.065002c-0.410995,1.108002 -1.508995,1.684006 -1.589996,1.638l1.887993,0.015015c0,0 0.812004,-1.987 3.206009,-4.312012c1.719994,-1.669998 4.072998,-3.671997 6.754997,-5.903c1.558998,-1.297989 2.998001,-3.106995 4.717003,-4.539993c1.591995,-1.326004 3.455994,-2.269012 5.085999,-3.678009c3.397995,-2.938995 7.016998,-6.473999 10.462997,-9.056c2.184998,-1.635986 4.302994,-3.103989 6.283997,-4.369987c-0.220993,-0.028999 -0.442001,-0.057999 -0.666,-0.084991l-1.438004,-0.167992c-0.729996,-0.076004 -1.465988,-0.149002 -2.221985,-0.205009c-14.228004,-1.051003 -35.166008,1.116989 -35.262009,0.859001c-0.122993,-0.332001 15.647003,-5.533005 30.339996,-7.64399c13.070007,-1.877014 27.615005,-1.348999 27.660004,-1.35601l0,-9.000004l20,18.998989l0,0.000008l0,0.000008z" fill="#ffffff" id="svg_2"/>
  </g>
 </g>
</svg>