<?xml version="1.0"?>
<svg width="255" height="171" viewBox="0 0 255 171" xmlns="http://www.w3.org/2000/svg">
 <g>
  <title>background</title>
  <rect x="-1" y="-1" width="257" height="173" id="canvas_background" fill="#0192eb"/>
 </g>

 <g>
  <title>Layer 1</title>
  <g stroke="null" id="svg_1">
   <path stroke="null" d="m98.967697,130.768204c0,1.37558 1.670219,2.490967 3.730804,2.490967l14.379662,0c2.0606,0 3.730797,-1.115387 3.730797,-2.490967l0,-2.06189c0,-1.375587 -1.670197,-2.490974 -3.730797,-2.490974l-14.379662,0c-2.060585,0 -3.730804,1.115387 -3.730804,2.490974l0,2.06189z" fill="#ffffff" id="svg_2"/>
   <path stroke="null" d="m142.653305,130.768204c0,1.37558 1.670197,2.490967 3.730789,2.490967l14.382401,0c2.060608,0 3.73082,-1.115387 3.73082,-2.490967l0,-2.06189c0,-1.375587 -1.670212,-2.490974 -3.73082,-2.490974l-14.382401,0c-2.060593,0 -3.730789,1.115387 -3.730789,2.490974l0,2.06189z" fill="#ffffff" id="svg_3"/>
   <path stroke="null" d="m71.848503,66.848579c0,-1.37558 -1.670555,-2.490967 -3.730797,-2.490967l-3.08815,0c-2.060246,0 -3.730797,1.115387 -3.730797,2.490967l0,9.60099c0,1.375572 1.670551,2.490952 3.730797,2.490952l3.08815,0c2.060242,0 3.730797,-1.115379 3.730797,-2.490952l0,-9.60099z" fill="#ffffff" id="svg_4"/>
   <path stroke="null" d="m202.166229,66.848579c0,-1.37558 -1.670181,-2.490967 -3.730759,-2.490967l-3.088516,0c-2.060242,0 -3.730789,1.115387 -3.730789,2.490967l0,9.60099c0,1.375572 1.670547,2.490952 3.730789,2.490952l3.088516,0c2.060577,0 3.730759,-1.115379 3.730759,-2.490952l0,-9.60099z" fill="#ffffff" id="svg_5"/>
   <path stroke="null" d="m61.298759,105.619301c0,1.375572 1.670212,2.490967 3.730797,2.490967l3.08815,0c2.060242,0 3.730797,-1.115395 3.730797,-2.490967l0,-9.600754c0,-1.375587 -1.670219,-2.490974 -3.730797,-2.490974l-3.08815,0c-2.060246,0 -3.730797,1.115387 -3.730797,2.490974l0,9.600754z" fill="#ffffff" id="svg_6"/>
   <path stroke="null" d="m98.967697,43.757462c0,1.37558 1.670219,2.490967 3.730804,2.490967l14.382057,0c2.060585,0 3.730804,-1.115387 3.730804,-2.490967l0,-2.061661c0,-1.37558 -1.670219,-2.490971 -3.730804,-2.490971l-14.382057,0c-2.060585,0 -3.730804,1.115391 -3.730804,2.490971l0,2.061661z" fill="#ffffff" id="svg_7"/>
   <path stroke="null" d="m142.656036,43.75769c0,1.37558 1.670212,2.490971 3.730804,2.490971l14.379318,0c2.060577,0 3.730789,-1.115391 3.730789,-2.490971l0,-2.06189c0,-1.37558 -1.670212,-2.490971 -3.730789,-2.490971l-14.379318,0c-2.060593,0 -3.730804,1.115391 -3.730804,2.490971l0,2.06189z" fill="#ffffff" id="svg_8"/>
   <path stroke="null" d="m191.616165,105.615646c0,1.37558 1.670212,2.490982 3.730789,2.490982l3.088516,0c2.060211,0 3.730759,-1.115402 3.730759,-2.490982l0,-9.601219c0,-1.375565 -1.670547,-2.490959 -3.730759,-2.490959l-3.088516,0c-2.060577,0 -3.730789,1.115395 -3.730789,2.490959l0,9.601219z" fill="#ffffff" id="svg_9"/>
   <path stroke="null" d="m81.138908,35.493938c0,-1.375809 -1.671577,-2.490288 -3.731819,-2.490288l-21.66658,0c-2.060249,0 -3.732159,1.114479 -3.732159,2.490288l0,14.469723c0,1.37558 1.671909,2.490059 3.732159,2.490059l21.66761,0c2.060577,0 3.730789,-1.115391 3.730789,-2.490971l0,-14.468811l0,0z" fill="#ffffff" id="svg_10"/>
   <path stroke="null" d="m81.138908,122.50399c0,-1.375572 -1.671577,-2.48983 -3.731819,-2.48983l-21.66658,0c-2.060928,0 -3.73251,1.114258 -3.73251,2.48983l0,14.469719c0,1.375809 1.671581,2.49028 3.73251,2.49028l21.666245,0c2.060577,0 3.731819,-1.114471 3.731819,-2.49028l0,-14.469719l0.000336,0z" fill="#ffffff" id="svg_11"/>
   <path stroke="null" d="m207.724838,33l-21.666565,0c-2.060608,0 -3.731827,1.114479 -3.731827,2.49028l0,14.469959c0,1.37558 1.67157,2.48983 3.731827,2.48983l21.666565,0c2.060577,0 3.732162,-1.11425 3.732162,-2.48983l0,-14.469959c0,-1.375801 -1.671585,-2.49028 -3.732162,-2.49028z" fill="#ffffff" id="svg_12"/>
   <path stroke="null" d="m207.724838,120.01416l-21.666565,0c-2.060608,0 -3.731827,1.114258 -3.731827,2.48983l0,14.469719c0,1.375809 1.67157,2.49028 3.731827,2.49028l21.666565,0c2.060577,0 3.732162,-1.114471 3.732162,-2.49028l0,-14.469719c0,-1.375572 -1.671585,-2.48983 -3.732162,-2.48983z" fill="#ffffff" id="svg_13"/>
  </g>
  <g id="svg_14"/>
  <g id="svg_15"/>
  <g id="svg_16"/>
  <g id="svg_17"/>
  <g id="svg_18"/>
  <g id="svg_19"/>
  <g id="svg_20"/>
  <g id="svg_21"/>
  <g id="svg_22"/>
  <g id="svg_23"/>
  <g id="svg_24"/>
  <g id="svg_25"/>
  <g id="svg_26"/>
  <g id="svg_27"/>
  <g id="svg_28"/>
 </g>
</svg>