<?xml version="1.0"?>
<svg width="27.529" height="20" xmlns="http://www.w3.org/2000/svg">

 <g>
  <title>background</title>
  <rect fill="none" id="canvas_background" height="22" width="29.529" y="-1" x="-1"/>
 </g>
 <g>
  <title>Layer 1</title>
  <g id="svg_1">
   <path id="svg_2" fill="#ffffff" d="m23.458,12.493416l-0.712,-4.110001l-8.713,5.194999l-8.545,-5.195998l-0.71,4.435998c0.003,-0.005999 0.01,-0.011999 0.017,-0.018999c-0.102,0.17 -0.158,0.344998 -0.158,0.523999c0,1.566995 6.577,6.392996 8.768,6.392996c2.193,0 10.196,-4.825 10.196,-6.392996c0,-0.167999 -0.056,-0.333 -0.143,-0.829998zm-9.357,0.166999l-13.390001,-8.113999l13.427,-4.282l13.391,4.222l-13.427999,8.173999zm-13.298,-7.395999l-0.803,8.890996l0.803,2.665994l0.744,-2.665994l-0.744,-8.890996z"/>
  </g>
  <g id="svg_3"/>
  <g id="svg_4"/>
  <g id="svg_5"/>
  <g id="svg_6"/>
  <g id="svg_7"/>
  <g id="svg_8"/>
  <g id="svg_9"/>
  <g id="svg_10"/>
  <g id="svg_11"/>
  <g id="svg_12"/>
  <g id="svg_13"/>
  <g id="svg_14"/>
  <g id="svg_15"/>
  <g id="svg_16"/>
  <g id="svg_17"/>
 </g>
</svg>