<?xml version="1.0"?>
<svg width="382.117" height="290" xmlns="http://www.w3.org/2000/svg">
 <g>
  <title>background</title>
  <rect x="-1" y="-1" width="384.117" height="292" id="canvas_background" fill="none"/>
 </g>

 <g>
  <title>Layer 1</title>
  <path d="m336.764008,-0.055l-291.410004,0c-25.007999,0 -45.354,19.539001 -45.354,43.555l0,203.117004c0,24.015991 20.346,43.554993 45.354,43.554993l291.410004,0c25.007996,0 45.352997,-19.539001 45.352997,-43.554993l0,-203.117004c0,-24.015999 -20.345001,-43.555 -45.352997,-43.555zm0,251.775001l-291.410004,0c-3.675999,0 -6.900002,-2.384003 -6.900002,-5.102997l0,-176.258003l131.796989,111.269997c2.702011,2.281998 6.138,3.537994 9.67601,3.537994l22.259003,0.001007c3.535995,0 6.973999,-1.257004 9.676987,-3.539001l131.802994,-111.274002l0,176.263992c-0.001984,2.71701 -3.22699,5.101013 -6.901978,5.101013zm-145.705002,-104.733002l-128.189011,-108.590004l256.377991,0l-128.18898,108.590004z" id="svg_1" fill="#00465d"/>
  <g id="svg_2"/>
  <g id="svg_3"/>
  <g id="svg_4"/>
  <g id="svg_5"/>
  <g id="svg_6"/>
  <g id="svg_7"/>
  <g id="svg_8"/>
  <g id="svg_9"/>
  <g id="svg_10"/>
  <g id="svg_11"/>
  <g id="svg_12"/>
  <g id="svg_13"/>
  <g id="svg_14"/>
  <g id="svg_15"/>
  <g id="svg_16"/>
 </g>
</svg>