<?xml version="1.0"?>
<svg width="510" height="490" xmlns="http://www.w3.org/2000/svg">

 <g>
  <title>background</title>
  <rect fill="none" id="canvas_background" height="492" width="512" y="-1" x="-1"/>
 </g>
 <g>
  <title>Layer 1</title>
  <g id="svg_1">
   <g id="work">
    <path fill="#ffffff" id="svg_2" d="m459,107.75l-102,0l0,-51l-51,-51l-102,0l-51,51l0,51l-102,0c-28.049999,0 -51,22.949997 -51,51l0,280.5c0,28.049988 22.950001,51 51,51l408,0c28.049988,0 51,-22.950012 51,-51l0,-280.5c0,-28.050003 -22.950012,-51 -51,-51zm-153,0l-102,0l0,-51l102,0l0,51z"/>
   </g>
  </g>
  <g id="svg_3"/>
  <g id="svg_4"/>
  <g id="svg_5"/>
  <g id="svg_6"/>
  <g id="svg_7"/>
  <g id="svg_8"/>
  <g id="svg_9"/>
  <g id="svg_10"/>
  <g id="svg_11"/>
  <g id="svg_12"/>
  <g id="svg_13"/>
  <g id="svg_14"/>
  <g id="svg_15"/>
  <g id="svg_16"/>
  <g id="svg_17"/>
 </g>
</svg>