<?xml version="1.0"?>
<svg width="512" height="512" xmlns="http://www.w3.org/2000/svg">
 <g>
  <title>background</title>
  <rect fill="none" id="canvas_background" height="514" width="514" y="-1" x="-1"/>
 </g>

 <g>
  <title>Layer 1</title>
  <g id="svg_1">
   <path fill="#00465d" id="svg_2" d="m256,0c-141.384995,0 -256,114.614998 -256,256s114.614998,256 256,256s256,-114.61499 256,-256s-114.61499,-256 -256,-256zm152.027008,408.027008c-19.76001,19.759003 -42.756012,35.266998 -68.354004,46.093994c-6.501984,2.75 -13.10498,5.164001 -19.800995,7.246002l0,-38.367004c0,-20.166992 -6.915985,-35 -20.75,-44.5c8.667999,-0.833008 16.625,-2 23.875,-3.5s14.917999,-3.666992 23,-6.5c8.084015,-2.833008 15.334015,-6.208008 21.75,-10.125c6.417999,-3.916992 12.584015,-9 18.5,-15.25c5.917999,-6.25 10.875,-13.333008 14.875,-21.25s7.167999,-17.416992 9.5,-28.5c2.334015,-11.083008 3.5,-23.291992 3.5,-36.625c0,-25.832993 -8.415985,-47.832993 -25.25,-66c7.667999,-20 6.834015,-41.75 -2.5,-65.25l-6.25,-0.75c-4.332001,-0.5 -12.125,1.333 -23.375,5.5s-23.875,11 -37.875,20.5c-19.832001,-5.5 -40.415985,-8.25 -61.748993,-8.25c-21.5,0 -42,2.75 -61.5,8.25c-8.833008,-6 -17.208008,-10.957993 -25.125,-14.875s-14.25,-6.582993 -19,-8s-9.167007,-2.292 -13.25,-2.625s-6.708008,-0.417 -7.875,-0.25s-2,0.333 -2.500008,0.5c-9.333,23.667007 -10.167,45.417007 -2.5,65.25c-16.833,18.167007 -25.25,40.167007 -25.25,66c0,13.333008 1.167,25.541992 3.5,36.625s5.5,20.583008 9.5,28.5s8.958,15 14.875,21.25s12.083,11.333008 18.500008,15.25s13.666992,7.291992 21.75,10.125s15.75,5 23,6.5s15.207993,2.666992 23.875,3.5c-13.667007,9.333008 -20.5,24.166992 -20.5,44.5l0,39.11499c-7.549011,-2.246979 -14.990005,-4.901978 -22.300003,-7.993988c-25.597,-10.826996 -48.594002,-26.334991 -68.352997,-46.093994c-19.758003,-19.757996 -35.266998,-42.756012 -46.093002,-68.354004c-11.198013,-26.477997 -16.877014,-54.630005 -16.877014,-83.673004s5.679001,-57.195007 16.879002,-83.675003c10.827,-25.597 26.334995,-48.594002 46.092999,-68.352997c19.757996,-19.759003 42.755997,-35.266998 68.352997,-46.092999c26.479996,-11.200001 54.632004,-16.879002 83.675003,-16.879002s57.195007,5.679001 83.675995,16.879002c25.597992,10.827 48.593994,26.334995 68.354004,46.092999c19.757996,19.757996 35.265991,42.755997 46.09201,68.352997c11.197998,26.479996 16.877991,54.632004 16.877991,83.675003s-5.679993,57.195007 -16.878998,83.674988c-10.825989,25.596008 -26.335999,48.595001 -46.093994,68.35202z"/>
  </g>
  <g id="svg_3"/>
  <g id="svg_4"/>
  <g id="svg_5"/>
  <g id="svg_6"/>
  <g id="svg_7"/>
  <g id="svg_8"/>
  <g id="svg_9"/>
  <g id="svg_10"/>
  <g id="svg_11"/>
  <g id="svg_12"/>
  <g id="svg_13"/>
  <g id="svg_14"/>
  <g id="svg_15"/>
  <g id="svg_16"/>
  <g id="svg_17"/>
 </g>
</svg>