<?xml version="1.0"?>
<svg width="430.117" height="430.118" xmlns="http://www.w3.org/2000/svg">
 <g>
  <title>background</title>
  <rect fill="none" id="canvas_background" height="432.118" width="432.117" y="-1" x="-1"/>
 </g>

 <g>
  <title>Layer 1</title>
  <g id="svg_1">
   <path fill="#00465d" d="m398.355011,0l-366.572998,0c-17.552999,0 -31.780001,13.793 -31.780001,30.816999l0,368.470995c0,17.025024 14.232002,30.830017 31.780001,30.830017l366.572998,0c17.548981,0 31.759979,-13.813995 31.759979,-30.830017l0,-368.470995c0,-17.018999 -14.210999,-30.816999 -31.759979,-30.816999zm-267.955017,360.037994l-64.986992,0l0,-194.192993l64.986992,0l0,194.192993zm-32.486992,-220.722992l-0.436996,0c-21.792999,0 -35.920002,-14.903999 -35.920002,-33.562996c0,-19.035004 14.542004,-33.535004 36.767002,-33.535004c22.226997,0 35.898994,14.496002 36.331001,33.535004c0,18.662994 -14.099007,33.562996 -36.741005,33.562996zm266.745995,220.722992l-64.966003,0l0,-103.899994c0,-26.106995 -9.412994,-43.921005 -32.907013,-43.921005c-17.972977,0 -28.641968,12.018005 -33.326996,23.621002c-1.735962,4.143997 -2.16597,9.940002 -2.16597,15.727997l0,108.468002l-64.95401,0c0,0 0.850006,-175.979004 0,-194.192001l64.963989,0l0,27.531006c8.623993,-13.229004 24.035004,-32.100006 58.533981,-32.100006c42.76001,0 74.822021,27.739014 74.822021,87.414001l0,111.350998zm-133.776001,-166.047989c0.111023,-0.182007 0.266006,-0.401001 0.419998,-0.613998l0,0.613998l-0.419998,0z" id="LinkedIn__x28_alt_x29_"/>
  </g>
  <g id="svg_2"/>
  <g id="svg_3"/>
  <g id="svg_4"/>
  <g id="svg_5"/>
  <g id="svg_6"/>
  <g id="svg_7"/>
  <g id="svg_8"/>
  <g id="svg_9"/>
  <g id="svg_10"/>
  <g id="svg_11"/>
  <g id="svg_12"/>
  <g id="svg_13"/>
  <g id="svg_14"/>
  <g id="svg_15"/>
  <g id="svg_16"/>
 </g>
</svg>