<?xml version="1.0"?>
<svg width="47.825" height="47.825" xmlns="http://www.w3.org/2000/svg">
 <g>
  <title>background</title>
  <rect fill="none" id="canvas_background" height="49.825" width="49.825" y="-1" x="-1"/>
 </g>

 <g>
  <title>Layer 1</title>
  <g id="svg_1">
   <g id="svg_2">
    <g id="svg_3">
     <path fill="#00465d" id="svg_4" d="m36.438999,12.646c0,-6.919 -5.608,-12.527 -12.528,-12.527s-12.526999,5.608 -12.526999,12.527c0,9.913 12.526999,24.582001 12.526999,24.582001s12.528,-14.720001 12.528,-24.582001zm-18.705999,-0.748c0,-3.413 2.767,-6.179 6.179001,-6.179s6.178999,2.766 6.178999,6.179c0,3.413 -2.767,6.179 -6.178999,6.179s-6.179001,-2.766 -6.179001,-6.179z"/>
     <circle fill="#00465d" id="svg_5" r="3.038" cy="11.898" cx="23.911"/>
     <path fill="#00465d" id="svg_6" d="m30.993999,32.869999c-1.021,1.476002 -1.979,2.761002 -2.777,3.792999c7.916,0.476002 13.104,2.185001 15.034,3.456001c-2.260998,1.491001 -8.979,3.587002 -19.337999,3.587002c-10.358,0 -17.077,-2.097 -19.338,-3.587002c1.93,-1.271 7.114,-2.979 15.022,-3.454998c-0.79999,-1.032001 -1.759001,-2.316002 -2.781,-3.792c-9.741,0.959 -16.816,3.841 -16.816,7.245998c0,4.189999 10.707,7.588001 23.913,7.588001c13.206999,0 23.912001,-3.396 23.912001,-7.588001c0.001999,-3.407001 -7.081001,-6.290001 -16.831001,-7.248001z"/>
    </g>
   </g>
  </g>
  <g id="svg_7"/>
  <g id="svg_8"/>
  <g id="svg_9"/>
  <g id="svg_10"/>
  <g id="svg_11"/>
  <g id="svg_12"/>
  <g id="svg_13"/>
  <g id="svg_14"/>
  <g id="svg_15"/>
  <g id="svg_16"/>
  <g id="svg_17"/>
  <g id="svg_18"/>
  <g id="svg_19"/>
  <g id="svg_20"/>
  <g id="svg_21"/>
 </g>
</svg>