<?xml version="1.0"?>
<svg width="94.504" height="72" xmlns="http://www.w3.org/2000/svg">

 <g>
  <title>background</title>
  <rect fill="none" id="canvas_background" height="74" width="96.504" y="-1" x="-1"/>
 </g>
 <g>
  <title>Layer 1</title>
  <g id="svg_1">
   <g id="svg_2">
    <path fill="#ffffff" id="svg_3" d="m93.917999,34.833l-24.118996,-24.118999c-0.75,-0.75 -2.077003,-0.75 -2.827003,0l-5.229,5.229c-0.780998,0.780998 -0.780998,2.046999 0,2.827999l17.477001,17.474998l-17.476002,17.478001c-0.780998,0.780998 -0.780998,2.047005 0,2.828003l5.229,5.228996c0.375,0.375 0.884003,0.586998 1.414001,0.586998c0.528999,0 1.039001,-0.211998 1.414001,-0.586998l24.116997,-24.118c0.780998,-0.781998 0.780998,-2.049 0,-2.829998z"/>
    <path fill="#ffffff" id="svg_4" d="m32.758999,53.723999l-17.473999,-17.475998l17.477001,-17.475c0.375,-0.375 0.585999,-0.883001 0.585999,-1.414001c0,-0.529999 -0.209999,-1.039 -0.585999,-1.414l-5.229,-5.229c-0.375,-0.375 -0.884001,-0.586 -1.414001,-0.586c-0.529999,0 -1.039,0.211 -1.414,0.586l-24.12,24.117001c-0.781,0.780998 -0.781,2.047001 0,2.828999l24.119001,24.118c0.375,0.375 0.883999,0.586998 1.414,0.586998c0.530001,0 1.039,-0.211998 1.414,-0.586998l5.229002,-5.228996c0.780998,-0.779999 0.780998,-2.046005 -0.002003,-2.827003z"/>
    <path fill="#ffffff" id="svg_5" d="m60.966999,2.6c-0.253998,-0.466001 -0.681999,-0.812 -1.189999,-0.962l-4.239002,-1.251c-1.057999,-0.314 -2.171997,0.293 -2.483997,1.352l-19.679001,66.643003c-0.150002,0.508995 -0.091999,1.056 0.160999,1.520996c0.253002,0.467003 0.681999,0.811996 1.190002,0.962997l4.238998,1.250999c0.188999,0.056 0.380001,0.083 0.567001,0.083c0.862999,0 1.66,-0.563995 1.917,-1.434998l19.678997,-66.64399c0.150002,-0.50901 0.093002,-1.05601 -0.160999,-1.521009z"/>
   </g>
  </g>
  <g id="svg_6"/>
  <g id="svg_7"/>
  <g id="svg_8"/>
  <g id="svg_9"/>
  <g id="svg_10"/>
  <g id="svg_11"/>
  <g id="svg_12"/>
  <g id="svg_13"/>
  <g id="svg_14"/>
  <g id="svg_15"/>
  <g id="svg_16"/>
  <g id="svg_17"/>
  <g id="svg_18"/>
  <g id="svg_19"/>
  <g id="svg_20"/>
 </g>
</svg>