<?xml version="1.0"?>
<svg width="443.857" height="415" xmlns="http://www.w3.org/2000/svg">

 <g>
  <title>background</title>
  <rect fill="none" id="canvas_background" height="417" width="445.857" y="-1" x="-1"/>
 </g>
 <g>
  <title>Layer 1</title>
  <g id="svg_1">
   <path fill="#ffffff" id="svg_2" d="m104.106003,363.348999l-45.394001,0l0,-190.654999l45.395,0l0,190.654999l-0.000999,0zm72.632004,-264.798996l-45.395004,0l0,266.312027l45.395004,0l0,-266.312027zm142.083008,0l-45.394989,0l0,266.312027l45.394989,0l0,-266.312027zm-72.123016,63.552002l-45.395004,0l0,202.759995l45.395004,0l0,-202.759995zm-222.487999,229.417984l0,-391.398989l-24.209999,0l0,415.615999l443.856995,0l0,-24.210999l-419.646996,0l0,-0.006012z"/>
  </g>
  <g id="svg_3"/>
  <g id="svg_4"/>
  <g id="svg_5"/>
  <g id="svg_6"/>
  <g id="svg_7"/>
  <g id="svg_8"/>
  <g id="svg_9"/>
  <g id="svg_10"/>
  <g id="svg_11"/>
  <g id="svg_12"/>
  <g id="svg_13"/>
  <g id="svg_14"/>
  <g id="svg_15"/>
  <g id="svg_16"/>
  <g id="svg_17"/>
 </g>
</svg>