<?xml version="1.0"?>
<svg width="452.986" height="452.986" xmlns="http://www.w3.org/2000/svg">

 <g>
  <title>background</title>
  <rect fill="none" id="canvas_background" height="402" width="582" y="-1" x="-1"/>
 </g>
 <g>
  <title>Layer 1</title>
  <g id="svg_1">
   <g id="svg_2">
    <g id="svg_3">
     <path id="svg_4" fill="#ffffff" d="m403.869995,0l-354.774994,0c-26.985001,0 -49.095001,22.110001 -49.095001,49.117001l0,354.795994c0,26.962982 22.110001,49.074005 49.095001,49.074005l354.774994,0c27.006989,0 49.117004,-22.110016 49.117004,-49.074005l0,-354.795994c-0.001007,-27.007 -22.110992,-49.117001 -49.117004,-49.117001zm11.950012,410.859009l-378.632008,0l0,-309.02301l378.632008,0l0,309.02301z"/>
     <circle id="svg_5" fill="#ffffff" r="36.843" cy="169.029" cx="124.765"/>
     <rect id="svg_6" fill="#ffffff" height="30.695" width="161.716" y="153.692" x="192.282"/>
     <circle id="svg_7" fill="#ffffff" r="36.843" cy="259.065" cx="124.765"/>
     <rect id="svg_8" fill="#ffffff" height="30.674" width="161.716" y="243.728" x="192.282"/>
     <circle id="svg_9" fill="#ffffff" r="36.843" cy="349.123" cx="124.765"/>
     <rect id="svg_10" fill="#ffffff" height="30.674" width="161.716" y="333.765" x="192.282"/>
    </g>
   </g>
   <g id="svg_11"/>
   <g id="svg_12"/>
   <g id="svg_13"/>
   <g id="svg_14"/>
   <g id="svg_15"/>
   <g id="svg_16"/>
   <g id="svg_17"/>
   <g id="svg_18"/>
   <g id="svg_19"/>
   <g id="svg_20"/>
   <g id="svg_21"/>
   <g id="svg_22"/>
   <g id="svg_23"/>
   <g id="svg_24"/>
   <g id="svg_25"/>
  </g>
  <g id="svg_26"/>
  <g id="svg_27"/>
  <g id="svg_28"/>
  <g id="svg_29"/>
  <g id="svg_30"/>
  <g id="svg_31"/>
  <g id="svg_32"/>
  <g id="svg_33"/>
  <g id="svg_34"/>
  <g id="svg_35"/>
  <g id="svg_36"/>
  <g id="svg_37"/>
  <g id="svg_38"/>
  <g id="svg_39"/>
  <g id="svg_40"/>
 </g>
</svg>