<?xml version="1.0"?>
<svg width="255" height="171" viewBox="0 0 255 171" xmlns="http://www.w3.org/2000/svg">
 <g>
  <title>background</title>
  <rect fill="#0192eb" id="canvas_background" height="173" width="257" y="-1" x="-1"/>
 </g>

 <g>
  <title>Layer 1</title>
  <g id="svg_1" stroke="null">
   <g id="svg_2" stroke="null">
    <g id="svg_3" stroke="null">
     <circle fill="#ffffff" id="svg_4" r="4.538139" cy="42.069751" cx="197.839648" stroke="null"/>
     <path fill="#ffffff" id="svg_5" d="m197.839676,46.790386c-3.944763,0 -7.15387,-2.117722 -7.15387,-4.720631c0,-2.603134 3.209106,-4.720654 7.15387,-4.720654c3.944397,0 7.153168,2.117733 7.153168,4.720654c0,2.602909 -3.208832,4.720631 -7.153168,4.720631zm0,-9.223885c-3.762863,0 -6.824448,2.020107 -6.824448,4.503254s3.061584,4.50325 6.824448,4.50325c3.762543,0 6.823761,-2.020115 6.823761,-4.50325s-3.061234,-4.503254 -6.823761,-4.503254z" stroke="null"/>
    </g>
    <g id="svg_6" stroke="null">
     <circle fill="#ffffff" id="svg_7" r="4.538147" cy="42.069751" cx="177.007614" stroke="null"/>
     <path fill="#ffffff" id="svg_8" d="m177.007599,46.790386c-3.944702,0 -7.153854,-2.117722 -7.153854,-4.720631c0,-2.603134 3.209152,-4.720654 7.153854,-4.720654c3.944366,0 7.153214,2.117733 7.153214,4.720654c0,2.602909 -3.208847,4.720631 -7.153214,4.720631zm0,-9.223885c-3.762878,0 -6.824432,2.020107 -6.824432,4.503254s3.061554,4.50325 6.824432,4.50325c3.762589,0 6.823792,-2.020115 6.823792,-4.50325s-3.061203,-4.503254 -6.823792,-4.503254z" stroke="null"/>
    </g>
    <g id="svg_9" stroke="null">
     <circle fill="#ffffff" id="svg_10" r="4.538147" cy="42.069751" cx="156.175581" stroke="null"/>
     <path fill="#ffffff" id="svg_11" d="m156.175568,46.790386c-3.944687,0 -7.153839,-2.117722 -7.153839,-4.720631c0,-2.603134 3.209152,-4.720654 7.153839,-4.720654s7.15387,2.117733 7.15387,4.720654c0,2.602909 -3.209152,4.720631 -7.15387,4.720631zm0,-9.223885c-3.762878,0 -6.824417,2.020107 -6.824417,4.503254s3.061539,4.50325 6.824417,4.50325s6.824463,-2.020115 6.824463,-4.50325s-3.061569,-4.503254 -6.824463,-4.503254z" stroke="null"/>
    </g>
    <g id="svg_12" stroke="null">
     <path fill="#ffffff" id="svg_13" d="m226.853287,135.761902l0,-99.494705c0,-6.968781 -8.591705,-12.63851 -19.152344,-12.63851l-156.384216,0c-10.560295,0 -19.152023,5.669725 -19.152023,12.63851l0,99.494705c0,6.968811 8.591728,12.638535 19.152023,12.638535l156.384216,0c10.560638,0 19.152344,-5.669724 19.152344,-12.638535zm-180.576569,-99.494705c0,-1.836864 2.256485,-3.32592 5.040005,-3.32592l156.384235,0c2.783203,0 5.040344,1.489056 5.040344,3.32592l0,14.234966l-166.464573,0l0,-14.234966l0,0l-0.000011,0zm0,99.494705l0,-75.947159l166.464569,0l0,75.947159c0,1.836655 -2.257141,3.325958 -5.040344,3.325958l-156.384216,0c-2.783527,0 -5.040005,-1.489304 -5.040005,-3.325958l-0.000011,0l0.000008,0z" stroke="null"/>
     <path fill="#ffffff" id="svg_14" d="m207.700943,148.509125l-156.384216,0c-10.651203,0 -19.31673,-5.718399 -19.31673,-12.747223l0,-99.494705c0,-7.028782 8.665527,-12.7472 19.31673,-12.7472l156.384216,0c10.651505,0 19.317062,5.718418 19.317062,12.7472l0,99.494705c0,7.028824 -8.665558,12.747223 -19.317062,12.747223zm-156.384216,-124.771744c-10.469711,0 -18.987316,5.620813 -18.987316,12.529819l0,99.494701c0,6.908813 8.517605,12.529861 18.987316,12.529861l156.384216,0c10.469727,0 18.987686,-5.620819 18.987686,-12.529861l0,-99.494701c0,-6.90901 -8.517639,-12.529819 -18.987686,-12.529819l-156.384216,0zm156.384216,115.459183l-156.384216,0c-2.869827,0 -5.204704,-1.540833 -5.204704,-3.434647l0,-76.055855l166.793983,0l0,76.05584c-0.000046,1.893829 -2.334885,3.434662 -5.205063,3.434662zm-161.259506,-79.273125l0,75.838463c0,1.774048 2.187294,3.217255 4.87529,3.217255l156.384216,0c2.688309,0 4.875595,-1.443207 4.875595,-3.217255l0,-75.838463l-166.135101,0l-0.000004,0l0.000004,0zm166.464523,-9.312584l-166.79393,0l0,-14.343651c0,-1.893814 2.334866,-3.434612 5.204704,-3.434612l156.384209,0c2.870178,0 5.205017,1.540798 5.205017,3.434612l0,14.343651zm-166.464523,-0.217381l166.135132,0l0,-14.12627c0,-1.774044 -2.187317,-3.217228 -4.875626,-3.217228l-156.384216,0c-2.688328,0 -4.875298,1.443184 -4.875298,3.217228l0,14.12627l0.000008,0z" stroke="null"/>
    </g>
   </g>
  </g>
  <g id="svg_15"/>
  <g id="svg_16"/>
  <g id="svg_17"/>
  <g id="svg_18"/>
  <g id="svg_19"/>
  <g id="svg_20"/>
  <g id="svg_21"/>
  <g id="svg_22"/>
  <g id="svg_23"/>
  <g id="svg_24"/>
  <g id="svg_25"/>
  <g id="svg_26"/>
  <g id="svg_27"/>
  <g id="svg_28"/>
  <g id="svg_29"/>
  <path id="svg_30" d="m198.068512,123.702469l-17.969727,-15.777939c2.42038,-3.506622 3.83992,-7.608437 3.83992,-12.007416c0,-12.825249 -11.832108,-23.210434 -26.430984,-23.217621c-14.603088,0.007187 -26.439209,10.392372 -26.439209,23.217621c0,12.818977 11.836121,23.211334 26.439209,23.211334c5.009979,0 9.680984,-1.25058 13.671661,-3.371941l17.977341,15.777946l8.911789,-7.831985zm-56.914597,-27.785355c0.015305,-7.932526 7.318893,-14.345161 16.349716,-14.358627c9.027237,0.013466 16.338409,6.426102 16.353745,14.358627c-0.019424,7.926239 -7.326508,14.33886 -16.353745,14.359535c-9.030823,-0.020676 -16.334412,-6.433296 -16.349716,-14.359535z" stroke-width="1.5" fill="#ffffff" stroke="null"/>
 </g>
</svg>