<?xml version="1.0"?>
<svg width="255" height="171" viewBox="0 0 255 171" xmlns="http://www.w3.org/2000/svg">

 <g>
  <title>background</title>
  <rect fill="#0192eb" id="canvas_background" height="173" width="257" y="-1" x="-1"/>
 </g>
 <g>
  <title>Layer 1</title>
  <g stroke="null" id="svg_1">
   <path stroke="null" fill="#ffffff" id="svg_2" d="m157.926727,78.60762c-16.777985,-16.779621 -44.075478,-16.779621 -60.850227,-0.004059c-16.777992,16.775566 -16.776375,44.073875 0.001625,60.852676c16.773125,16.774765 44.070618,16.774765 60.847,-0.003235c16.776367,-16.775566 16.775558,-44.072258 0.001602,-60.845383zm-4.69487,56.153732c-14.187668,14.187668 -37.273621,14.189285 -51.462097,0.001633c-14.190895,-14.190094 -14.18927,-37.278496 0,-51.466156c14.187668,-14.186844 37.272812,-14.188469 51.463715,0.001625c14.187653,14.18766 14.18605,37.276054 -0.001617,51.462898zm-41.78035,-37.37661c0,-2.776878 2.252136,-5.02903 5.029007,-5.02903c2.776062,0 5.028214,2.251343 5.028214,5.02903c0,2.778481 -2.252151,5.029823 -5.028214,5.029823c-2.776871,0 -5.029007,-2.251343 -5.029007,-5.029823zm22.802902,0c0,-2.776878 2.253784,-5.02903 5.030655,-5.02903c2.776062,0 5.028214,2.251343 5.028214,5.02903c0,2.778481 -2.251343,5.029823 -5.028214,5.029823s-5.030655,-2.251343 -5.030655,-5.029823zm11.889297,20.596992c-3.116669,7.207375 -10.41571,11.864136 -18.593834,11.864136c-8.354126,0 -15.696114,-4.680283 -18.704933,-11.924141c-0.515793,-1.240028 0.072182,-2.664146 1.313812,-3.179947c0.304947,-0.125702 0.621231,-0.185715 0.932663,-0.185715c0.953743,0 1.858818,0.563644 2.247284,1.500351c2.252159,5.422356 7.830215,8.924263 14.211174,8.924263c6.23661,0 11.782219,-3.504341 14.127647,-8.929939c0.53363,-1.233536 1.965866,-1.802048 3.198593,-1.267593s1.801224,1.965866 1.267593,3.198586z"/>
  </g>
  <g id="svg_3"/>
  <g id="svg_4"/>
  <g id="svg_5"/>
  <g id="svg_6"/>
  <g id="svg_7"/>
  <g id="svg_8"/>
  <g id="svg_9"/>
  <g id="svg_10"/>
  <g id="svg_11"/>
  <g id="svg_12"/>
  <g id="svg_13"/>
  <g id="svg_14"/>
  <g id="svg_15"/>
  <g id="svg_16"/>
  <g id="svg_17"/>
  <text xml:space="preserve" text-anchor="left" font-family="Helvetica, Arial, sans-serif" font-size="24" id="svg_18" y="52" x="30.523438" stroke-opacity="null" stroke-width="0" stroke="null" fill="#ffffff">Hi, I'm Wei-Chun !</text>
 </g>
</svg>