<?xml version="1.0"?>
<svg width="255" height="171" viewBox="0 0 255 171" xmlns="http://www.w3.org/2000/svg">
 <g>
  <title>background</title>
  <rect x="-1" y="-1" width="257" height="173" id="canvas_background" fill="#0192eb"/>
 </g>

 <g>
  <title>Layer 1</title>
  <g id="svg_4"/>
  <g id="svg_5"/>
  <g id="svg_6"/>
  <g id="svg_7"/>
  <g id="svg_8"/>
  <g id="svg_9"/>
  <g id="svg_10"/>
  <g id="svg_11"/>
  <g id="svg_12"/>
  <g id="svg_13"/>
  <g id="svg_14"/>
  <g id="svg_15"/>
  <g id="svg_16"/>
  <g id="svg_17"/>
  <g id="svg_18"/>
  <path stroke="null" fill="#ffffff" stroke-width="1.5" stroke-opacity="null" d="m129.5,26.833l0,62.162506l79,0l0,-62.162506l-79,0zm66.564804,56.826881l-54.129608,0l0,-51.491249l54.129608,0l0,51.491249zm-40.962952,-31.312263c4.172348,0 7.557663,-3.220295 7.557663,-7.189308c0,-3.971767 -3.385315,-7.189278 -7.557663,-7.189278c-4.175308,0 -7.557678,3.220299 -7.557678,7.189278c0,3.969013 3.38237,7.189308 7.557678,7.189308zm38.039948,6.262459l-14.386765,-13.685551l-20.238632,19.252171l-5.609024,-5.335629l-8.052124,7.659702l0,14.375801l48.286545,0l0,-22.266495z" id="svg_19"/>
  <g transform="rotate(14 87.54849243164065,106.45648193359371) " stroke="null" id="svg_1">
   <g stroke="null" id="svg_2">
    <path stroke="null" d="m112.671577,111.79007c9.739082,-10.44249 16.450401,-29.324364 11.366142,-25.628494c-16.451187,11.960831 -29.206917,17.275269 -36.825706,20.65567c3.152252,-8.16893 8.109306,-21.845367 19.264328,-39.484634c3.447075,-5.450623 -14.163673,1.744286 -23.902756,12.186546c-7.629715,8.180428 -8.327248,21.364845 -6.051254,29.073952c-0.972633,0.579697 -2.06118,1.191391 -3.232437,1.78949c0.454811,-3.371002 -0.251106,-6.882996 -2.095718,-9.776413c-3.998459,-6.272751 -12.011375,-7.888168 -17.862236,-3.601105c-5.850475,4.287491 -7.356945,12.878769 -3.358875,19.152176c2.521839,3.955078 6.638729,6.056244 10.803226,5.996216c0.144394,0.015045 6.829361,0.260025 17.07106,-5.295822c-5.182213,10.981155 -4.953537,18.148438 -4.939682,18.303238c-0.056,4.465103 1.904106,8.879578 5.593117,11.583038c5.850471,4.287048 13.863777,2.671646 17.862434,-3.60112c3.997879,-6.27298 2.491806,-14.8647 -3.358871,-19.151764c-2.698425,-1.977524 -5.974564,-2.734406 -9.11824,-2.246979c0.557831,-1.2556 1.127953,-2.422287 1.668999,-3.465347c7.189934,2.43988 19.486961,1.691986 27.11647,-6.488647zm-47.403969,-0.479263c-0.405052,0.74556 -0.951958,1.374832 -1.625679,1.868744c-2.467018,1.807678 -5.845802,1.12674 -7.532158,-1.518982c-1.686172,-2.645081 -1.051079,-6.26796 1.416519,-8.075821c2.46682,-1.80809 5.845795,-1.126526 7.531967,1.518356c1.173607,1.841965 1.255356,4.278275 0.209351,6.207703zm23.542969,19.259064c2.467407,1.808075 3.102303,5.43074 1.416328,8.075821c-1.68676,2.645294 -5.06514,3.326035 -7.532349,1.51857c-2.467018,-1.80809 -3.102112,-5.43074 -1.415939,-8.075821c0.460274,-0.722168 1.046593,-1.308533 1.742561,-1.74263c1.798744,-1.12233 4.071434,-1.034683 5.789398,0.22406zm-4.877052,-15.800201c-1.142784,1.22525 -2.995773,1.22525 -4.138741,0.000198c-1.142975,-1.225266 -1.142975,-3.212219 0,-4.43811c1.142776,-1.225052 2.995766,-1.225052 4.138741,0.000214c1.142586,1.225677 1.142586,3.212418 0,4.437698z" id="svg_3" fill="#ffffff"/>
   </g>
  </g>
 </g>
</svg>